<?xml version="1.0" standalone="no"?>
<!DOCTYPE svg PUBLIC "-//W3C//DTD SVG 20010904//EN"
 "http://www.w3.org/TR/2001/REC-SVG-20010904/DTD/svg10.dtd">
<svg version="1.0" xmlns="http://www.w3.org/2000/svg"
 width="1184.000000pt" height="1184.000000pt" viewBox="0 0 1184.000000 1184.000000"
 preserveAspectRatio="xMidYMid meet">
<metadata>
Created by potrace 1.11, written by Peter Selinger 2001-2013
</metadata>
<g transform="translate(0.000000,1184.000000) scale(0.100000,-0.100000)"
fill="#000000" stroke="none">
<path d="M5225 11830 c-48 -7 -118 -16 -200 -26 -21 -3 -42 -7 -45 -9 -4 -2
-29 -7 -56 -10 -27 -4 -92 -16 -144 -27 -121 -25 -130 -27 -160 -33 -14 -4
-34 -8 -45 -10 -17 -4 -230 -60 -260 -68 -5 -2 -26 -7 -45 -11 -19 -5 -39 -11
-45 -14 -5 -4 -15 -7 -22 -8 -63 -10 -481 -164 -652 -241 -103 -46 -295 -138
-355 -170 -234 -125 -352 -194 -503 -295 -40 -27 -76 -48 -79 -47 -4 0 -10 -3
-13 -8 -3 -5 -37 -31 -76 -58 -38 -27 -72 -51 -75 -54 -3 -3 -27 -22 -55 -40
-27 -19 -52 -37 -55 -40 -3 -4 -25 -22 -50 -41 -66 -51 -81 -63 -99 -80 -9 -8
-31 -26 -50 -39 -32 -23 -96 -79 -169 -148 -19 -18 -36 -33 -39 -33 -6 0 -337
-332 -383 -385 -32 -36 -191 -223 -242 -283 -10 -13 -39 -50 -62 -82 -24 -33
-51 -67 -60 -75 -9 -9 -16 -20 -16 -25 0 -5 -7 -15 -15 -23 -8 -9 -55 -75
-105 -149 -49 -73 -93 -138 -97 -144 -9 -11 -11 -15 -100 -164 -34 -58 -66
-110 -70 -115 -4 -6 -26 -47 -48 -90 -22 -44 -42 -82 -45 -85 -7 -6 -110 -218
-140 -285 -12 -27 -34 -76 -48 -109 -15 -32 -27 -62 -28 -65 -1 -8 -22 -61
-34 -86 -15 -31 -81 -208 -85 -227 -2 -9 -9 -27 -16 -40 -7 -13 -12 -25 -12
-28 1 -6 1 -5 -30 -105 -26 -82 -57 -189 -58 -202 -1 -5 -5 -18 -10 -31 -5
-12 -11 -33 -14 -45 -3 -12 -18 -78 -35 -147 -31 -130 -33 -139 -45 -205 -4
-22 -9 -49 -11 -60 -12 -63 -35 -195 -39 -224 -4 -31 -11 -83 -20 -141 -10
-70 -20 -180 -32 -335 -15 -212 -8 -789 12 -950 2 -16 6 -57 10 -90 3 -33 7
-71 9 -85 3 -14 14 -90 26 -170 12 -80 33 -199 47 -265 14 -66 26 -129 28
-140 1 -11 8 -40 15 -65 7 -25 14 -52 16 -60 1 -8 10 -42 19 -75 9 -33 18 -64
19 -70 1 -5 5 -16 9 -23 5 -6 6 -16 2 -21 -3 -5 -1 -12 5 -16 5 -3 10 -14 10
-23 0 -9 16 -64 35 -122 20 -58 37 -112 39 -120 2 -8 11 -33 19 -55 8 -22 27
-74 42 -115 28 -77 42 -112 65 -165 8 -16 14 -32 15 -35 2 -8 24 -60 42 -100
8 -19 41 -90 74 -158 32 -68 59 -127 59 -133 0 -5 5 -9 10 -9 6 0 10 -8 10
-18 0 -10 4 -22 9 -28 5 -5 30 -49 56 -99 101 -190 361 -602 388 -613 4 -2 7
-10 7 -17 0 -7 3 -15 8 -17 4 -1 39 -46 78 -98 90 -119 104 -136 131 -165 13
-13 23 -27 23 -30 0 -4 6 -12 12 -19 7 -7 33 -37 58 -66 119 -140 401 -428
530 -542 36 -32 74 -66 85 -76 17 -16 48 -42 180 -151 11 -9 38 -30 60 -46 61
-46 65 -49 84 -65 9 -8 37 -28 61 -45 25 -16 47 -33 50 -36 3 -3 43 -31 90
-63 47 -31 93 -62 103 -69 47 -32 186 -119 222 -138 22 -12 43 -26 46 -31 3
-5 8 -8 10 -7 2 2 32 -14 67 -34 35 -20 67 -37 73 -37 5 0 9 -5 9 -12 0 -6 3
-8 6 -5 4 4 20 -3 35 -14 16 -11 29 -17 29 -13 0 3 6 2 13 -4 21 -17 359 -182
373 -182 3 0 30 -11 60 -25 30 -14 91 -39 137 -56 45 -17 96 -37 112 -44 29
-12 105 -39 115 -40 3 0 25 -8 50 -17 54 -20 209 -69 231 -73 9 -2 47 -12 85
-24 38 -11 119 -32 179 -46 137 -33 144 -35 175 -40 14 -2 45 -8 70 -13 25 -6
61 -13 80 -16 19 -3 46 -8 60 -11 14 -3 43 -7 65 -10 22 -3 51 -7 65 -10 14
-3 43 -7 65 -10 22 -2 58 -7 80 -10 194 -26 292 -30 735 -30 401 0 485 3 640
21 44 5 229 30 300 40 75 12 250 47 350 70 58 14 114 27 125 29 30 4 239 63
330 93 44 14 83 27 88 28 4 1 8 2 10 4 1 1 9 3 18 5 31 6 315 113 424 159 139
60 426 195 435 205 4 5 66 38 165 89 17 9 33 20 37 26 4 6 8 7 8 3 0 -5 12 1
26 12 15 12 31 21 36 21 5 0 14 5 21 11 13 11 87 57 177 110 30 18 59 39 63
46 4 7 12 13 17 13 11 0 144 91 148 102 2 4 8 8 14 8 5 0 16 6 23 13 18 15 27
22 100 77 33 24 66 50 75 56 137 110 200 163 223 186 15 15 27 26 27 23 0 -12
407 387 495 486 32 36 180 210 205 242 8 10 22 27 30 37 9 10 36 46 60 79 25
34 48 61 52 61 5 0 8 5 8 10 0 6 18 34 40 63 22 29 44 57 48 62 4 6 32 48 62
94 30 46 61 90 68 98 7 7 11 13 7 13 -3 0 5 15 18 32 14 18 32 47 41 63 9 17
25 44 36 60 10 17 25 41 33 55 7 14 34 62 60 107 26 45 47 87 47 93 0 5 5 10
10 10 6 0 10 9 10 19 0 11 3 21 8 23 8 4 112 214 112 228 0 6 5 10 11 10 5 0
8 4 4 9 -3 5 -1 12 5 16 6 4 8 11 5 16 -4 5 -1 9 4 9 6 0 11 5 11 10 0 6 9 29
20 53 32 69 90 211 90 219 0 5 9 27 20 51 49 107 205 606 223 715 3 15 8 34
11 42 3 8 7 26 10 40 2 14 9 45 15 70 5 25 13 61 16 80 3 19 8 42 10 50 2 8 6
29 9 45 3 17 12 71 20 120 14 86 25 161 31 215 1 14 6 52 9 85 24 214 31 348
31 650 0 249 -8 461 -19 535 -3 14 -7 59 -11 100 -3 41 -8 84 -10 95 -4 18
-11 69 -21 150 -2 17 -6 39 -9 51 -2 12 -7 39 -10 60 -3 21 -15 82 -25 134
-11 52 -21 106 -24 120 -2 14 -12 54 -21 90 -9 36 -19 74 -21 85 -5 32 -41
165 -60 225 -10 30 -18 60 -20 67 -3 15 -24 83 -31 103 -4 8 -7 17 -8 20 -17
63 -103 297 -126 342 -5 10 -9 22 -9 28 0 5 -11 33 -24 62 -13 29 -38 87 -56
128 -27 63 -158 329 -190 388 -133 242 -397 657 -465 730 -14 15 -25 30 -25
34 0 5 -8 16 -17 26 -10 11 -36 43 -58 71 -22 29 -47 61 -55 71 -8 9 -31 37
-50 60 -19 24 -46 55 -60 71 -14 15 -50 56 -80 91 -114 130 -450 457 -580 564
-19 16 -40 33 -46 39 -6 5 -43 35 -83 65 -39 30 -71 58 -71 63 0 4 -5 7 -11 7
-6 0 -26 12 -44 28 -41 33 -54 43 -227 162 -76 52 -161 109 -189 125 -28 17
-56 35 -62 40 -7 6 -32 21 -57 34 -25 14 -48 29 -52 35 -4 6 -8 7 -8 3 0 -5
-12 0 -27 11 -45 31 -319 176 -335 177 -4 0 -13 6 -19 13 -7 6 -16 12 -20 12
-4 0 -40 15 -81 34 -125 58 -213 97 -218 98 -6 1 -20 6 -125 48 -43 18 -84 33
-90 34 -5 1 -14 4 -20 7 -8 5 -135 49 -155 54 -3 1 -12 4 -20 8 -8 3 -69 22
-135 42 -66 19 -138 41 -160 48 -22 6 -44 11 -49 9 -4 -1 -14 3 -22 9 -8 6
-14 9 -14 5 0 -3 -10 -2 -23 3 -13 5 -41 12 -61 15 -21 4 -42 8 -46 11 -7 4
-256 55 -336 69 -72 13 -197 31 -309 45 -83 11 -1317 12 -1390 1z"/>
</g>
</svg>
